<svg width="75" height="74" viewBox="0 0 75 74" fill="none" xmlns="http://www.w3.org/2000/svg">
<path d="M38.7595 24.3969L36.7475 29.128C36.6865 29.2716 36.6653 29.429 36.6862 29.5836C36.7071 29.7382 36.7693 29.8843 36.8663 30.0065C36.9633 30.1287 37.0915 30.2225 37.2373 30.2779C37.3831 30.3334 37.5412 30.3484 37.6949 30.3216L45.2011 29.0085C48.4447 30.1568 51.9939 30.0954 55.1958 28.8355C58.3977 27.5756 61.037 25.2019 62.6284 22.1511C64.2197 19.1004 64.656 15.5776 63.857 12.2308C63.058 8.88397 61.0774 5.93818 58.2796 3.93522C55.4818 1.93227 52.0549 1.00685 48.6292 1.32918C45.2034 1.6515 42.0093 3.1999 39.6342 5.68957C37.2591 8.17924 35.8628 11.4428 35.7021 14.8799C35.5414 18.317 36.6271 21.6965 38.7595 24.3969ZM49.9013 3.17976C51.7236 3.17756 53.5241 3.57538 55.1758 4.34514C56.8275 5.1149 58.2902 6.23783 59.4604 7.63467C60.6307 9.0315 61.4801 10.6682 61.9486 12.4292C62.4172 14.1902 62.4935 16.0326 62.1722 17.8263C61.8508 19.62 61.1397 21.3213 60.0889 22.8102C59.0381 24.299 57.6734 25.539 56.091 26.4427C54.5086 27.3464 52.7471 27.8917 50.9309 28.0402C49.1147 28.1887 47.288 27.9367 45.5798 27.302C45.4358 27.2489 45.2803 27.2348 45.129 27.2611L38.9678 28.3389L40.5608 24.5932C40.6239 24.445 40.6444 24.2821 40.62 24.1229C40.5957 23.9636 40.5275 23.8143 40.4231 23.6916C38.8809 21.8824 37.8893 19.6693 37.5658 17.3141C37.2422 14.9589 37.6002 12.5603 38.5974 10.4022C39.5946 8.24418 41.1893 6.41702 43.1926 5.13703C45.1959 3.85704 47.524 3.17782 49.9013 3.17976Z" fill="#E1651F"/>
<path d="M39.0845 19.0088C39.0853 19.3993 39.2055 19.7803 39.4288 20.1006C39.6522 20.4209 39.9681 20.6653 40.3343 20.801C40.6786 23.2576 42.8045 24.8595 45.8424 24.8595H53.9598C56.9977 24.8595 59.1236 23.2576 59.4679 20.8016C59.7457 20.6996 59.996 20.5343 60.1989 20.3188C60.4018 20.1034 60.5518 19.8437 60.637 19.5603C60.7223 19.2769 60.7404 18.9776 60.69 18.6859C60.6396 18.3943 60.5221 18.1184 60.3467 17.88C60.5412 17.6055 60.6746 17.2924 60.7378 16.9619C60.8011 16.6314 60.7928 16.2912 60.7134 15.9642C60.6341 15.6372 60.4856 15.331 60.2779 15.0663C60.0702 14.8015 59.8081 14.5844 59.5094 14.4295C58.9764 12.2843 57.7409 10.3792 55.9996 9.01757C54.2584 7.65598 52.1115 6.91626 49.9011 6.91626C47.6907 6.91626 45.5438 7.65598 43.8026 9.01757C42.0613 10.3792 40.8258 12.2843 40.2928 14.4295C39.9941 14.5844 39.732 14.8016 39.5243 15.0664C39.3166 15.3311 39.1681 15.6373 39.0887 15.9644C39.0094 16.2914 39.0011 16.6316 39.0644 16.9621C39.1276 17.2926 39.261 17.6057 39.4555 17.8803C39.2147 18.2073 39.0847 18.6027 39.0845 19.0088ZM41.0009 19.2227C40.9511 19.219 40.9046 19.1965 40.8708 19.1598C40.837 19.123 40.8184 19.0748 40.8189 19.0249C40.8193 18.99 40.8312 18.9563 40.8526 18.9289C40.8741 18.9014 40.904 18.8818 40.9377 18.873L51.7676 18.9337C51.8813 18.9337 52.0633 19.0782 52.2836 19.2227H41.0009ZM53.9598 23.1251H45.8424C44.2463 23.1251 42.5569 22.547 42.1247 20.9571H53.8751C54.0981 21.3135 54.2738 21.6973 54.3979 22.0989C54.4439 22.2224 54.5167 22.3342 54.611 22.4262C54.7054 22.5183 54.8189 22.5883 54.9435 22.6313C55.0681 22.6742 55.2007 22.6891 55.3317 22.6748C55.4627 22.6604 55.5889 22.6173 55.7013 22.5484C56.3749 22.0598 57.0163 21.5283 57.6214 20.9571H57.6775C57.2453 22.547 55.5562 23.1251 53.9598 23.1251ZM54.5235 18.9337H57.0347C56.6151 19.5088 56.1298 20.0329 55.5886 20.4953C55.2995 19.9328 54.9418 19.4082 54.5236 18.9337H54.5235ZM58.8055 19.1898C58.8475 19.0852 58.8839 18.9785 58.9145 18.8701C58.9356 18.8866 58.9527 18.9076 58.9646 18.9317C58.9764 18.9557 58.9827 18.9821 58.983 19.0088C58.9829 19.0562 58.9643 19.1016 58.9311 19.1354C58.898 19.1692 58.853 19.1887 58.8057 19.1898H58.8055ZM49.901 8.65621C51.6044 8.64331 53.2684 9.16897 54.6553 10.1581C56.0422 11.1473 57.0811 12.5494 57.6237 14.1642H42.1785C42.7211 12.5494 43.76 11.1473 45.1468 10.1582C46.5337 9.16902 48.1977 8.64334 49.9011 8.65621H49.901ZM41.3839 15.8985H58.4179C58.5904 15.8985 58.7558 15.967 58.8778 16.089C58.9998 16.211 59.0683 16.3764 59.0683 16.5489C59.0683 16.7214 58.9998 16.8868 58.8778 17.0088C58.7558 17.1308 58.5904 17.1993 58.4179 17.1993H41.3839C41.2114 17.1993 41.046 17.1308 40.924 17.0088C40.802 16.8868 40.7335 16.7214 40.7335 16.5489C40.7335 16.3764 40.802 16.211 40.924 16.089C41.046 15.967 41.2114 15.8985 41.3839 15.8985Z" fill="#E1651F"/>
<path d="M46.0903 42.0325C45.6412 42.0325 45.2021 42.1657 44.8286 42.4152C44.4552 42.6648 44.1641 43.0194 43.9922 43.4344C43.8203 43.8494 43.7753 44.306 43.8629 44.7465C43.9506 45.1871 44.1669 45.5917 44.4845 45.9093C44.8021 46.2269 45.2067 46.4432 45.6473 46.5309C46.0878 46.6185 46.5444 46.5735 46.9594 46.4016C47.3744 46.2297 47.7291 45.9387 47.9786 45.5652C48.2281 45.1917 48.3613 44.7527 48.3613 44.3035C48.3607 43.7014 48.1212 43.1241 47.6954 42.6984C47.2697 42.2726 46.6924 42.0332 46.0903 42.0325ZM46.0903 44.84C45.9842 44.84 45.8804 44.8085 45.7922 44.7495C45.7039 44.6906 45.6351 44.6067 45.5945 44.5087C45.5539 44.4106 45.5433 44.3027 45.564 44.1986C45.5847 44.0945 45.6358 43.9989 45.7109 43.9238C45.786 43.8488 45.8816 43.7977 45.9857 43.777C46.0898 43.7563 46.1977 43.767 46.2958 43.8076C46.3938 43.8482 46.4776 43.917 46.5366 44.0053C46.5955 44.0936 46.627 44.1973 46.627 44.3035C46.6268 44.4458 46.5702 44.5821 46.4696 44.6827C46.369 44.7833 46.2326 44.8399 46.0903 44.84Z" fill="#E1651F"/>
<path d="M16.8578 64.6055H17.5552C17.7851 64.6055 18.0057 64.5141 18.1683 64.3515C18.331 64.1888 18.4223 63.9683 18.4223 63.7383C18.4223 63.5083 18.331 63.2877 18.1683 63.1251C18.0057 62.9625 17.7851 62.8711 17.5552 62.8711H16.8578C16.6278 62.8711 16.4072 62.9625 16.2446 63.1251C16.082 63.2877 15.9906 63.5083 15.9906 63.7383C15.9906 63.9683 16.082 64.1888 16.2446 64.3515C16.4072 64.5141 16.6278 64.6055 16.8578 64.6055Z" fill="#E1651F"/>
<path d="M20.8884 64.6055H30.3852C30.6152 64.6055 30.8358 64.5141 30.9984 64.3515C31.1611 64.1888 31.2524 63.9683 31.2524 63.7383C31.2524 63.5083 31.1611 63.2877 30.9984 63.1251C30.8358 62.9625 30.6152 62.8711 30.3852 62.8711H20.8884C20.6584 62.8711 20.4378 62.9625 20.2752 63.1251C20.1125 63.2877 20.0212 63.5083 20.0212 63.7383C20.0212 63.9683 20.1125 64.1888 20.2752 64.3515C20.4378 64.5141 20.6584 64.6055 20.8884 64.6055Z" fill="#E1651F"/>
<path d="M8.90172 38.7006C8.824 39.6284 8.95911 40.5617 9.29674 41.4295C9.63437 42.2972 10.1656 43.0764 10.85 43.7077C10.6388 44.297 10.5321 44.9187 10.5349 45.5447V54.4883H9.38995C9.1544 54.4976 8.93154 54.5975 8.76787 54.7672C8.60419 54.9368 8.51235 55.1631 8.51149 55.3988V59.9429C8.51262 60.178 8.60473 60.4035 8.7685 60.5722C8.93227 60.7409 9.15499 60.8396 9.38995 60.8477H11.9802V71.6875C11.984 71.9193 12.079 72.1403 12.2445 72.3026C12.41 72.4649 12.6328 72.5554 12.8646 72.5547H63.6268C63.7381 72.5537 63.8481 72.5302 63.9501 72.4856C64.0522 72.4411 64.1442 72.3763 64.2206 72.2954C64.297 72.2144 64.3563 72.1188 64.3949 72.0143C64.4334 71.9099 64.4505 71.7987 64.4451 71.6875V60.8477H67.1014C67.5803 60.8477 67.9138 60.4217 67.9138 59.9429V55.3988C67.9138 54.92 67.5803 54.4883 67.1014 54.4883H59.4913C59.6517 54.1992 59.6756 53.7708 59.6756 53.3504V52.2512C59.6756 51.8542 59.531 51.5202 59.0974 51.4174V38.6043C59.0976 38.2769 59.0327 37.9526 58.9065 37.6505C58.7802 37.3484 58.5952 37.0744 58.3621 36.8444C58.129 36.6144 57.8525 36.4331 57.5487 36.3109C57.2449 36.1888 56.9198 36.1282 56.5924 36.1328H35.5887C35.2612 36.1281 34.936 36.1886 34.632 36.3107C34.3281 36.4328 34.0514 36.6141 33.8182 36.8441C33.5849 37.074 33.3997 37.3481 33.2733 37.6503C33.1469 37.9524 33.0818 38.2767 33.0818 38.6043V40.155C32.9373 40.1498 32.8758 40.1793 32.7783 40.1793H29.9832C29.7651 40.1758 29.552 40.1141 29.3658 40.0006C29.1796 39.8871 29.0271 39.7258 28.9242 39.5335C30.7446 39.1198 32.3839 38.1324 33.6008 36.7168C34.8177 35.3011 35.5477 33.5321 35.6834 31.6703L36.192 24.6734C36.1934 24.6524 36.1943 24.6293 36.1943 24.6083C36.1922 24.2437 36.1008 23.8851 35.9281 23.564C35.7555 23.2428 35.5068 22.9689 35.2038 22.766C35.0912 22.6964 34.9971 22.6006 34.9296 22.4868C34.8621 22.3729 34.8232 22.2444 34.8162 22.1123V19.1089C34.8174 18.0613 34.4516 17.0464 33.7823 16.2404C33.113 15.4345 32.1825 14.8885 31.1525 14.6974C30.9651 13.5422 30.3735 12.4912 29.4832 11.7317C28.5928 10.9722 27.4617 10.5537 26.2914 10.5508H22.4113C21.3038 10.554 20.2077 10.7754 19.1856 11.2023C18.1636 11.6292 17.2357 12.2533 16.455 13.0389C15.6742 13.8245 15.0559 14.7562 14.6353 15.7808C14.2147 16.8054 14 17.9029 14.0037 19.0105V19.4585C13.5701 20.0367 12.3724 21.5378 11.5456 23.153C10.7572 24.6933 10.6003 26.4803 11.1083 28.1345L11.1126 28.1661C11.3917 29.088 11.3988 30.0709 11.133 30.9968L10.9318 31.6972C10.8819 31.5975 10.8563 31.4874 10.8571 31.3759C10.8573 31.1767 10.789 30.9835 10.6635 30.8288C10.5381 30.674 10.3632 30.5672 10.1683 30.5262C9.97334 30.4853 9.77025 30.5127 9.59314 30.6038C9.41603 30.6949 9.27568 30.8443 9.1957 31.0267L8.07529 33.5726C7.74256 34.3236 7.64868 35.1587 7.80638 35.9649C7.96407 36.771 8.36573 37.5092 8.95693 38.0795L8.90172 38.7006ZM10.618 39.049C11.3122 39.2542 12.0488 39.2689 12.7507 39.0916C13.4525 38.9143 14.0937 38.5514 14.6071 38.0411C15.7329 36.9204 16.4912 35.4838 16.781 33.9219C17.5234 35.2714 17.8122 36.8238 17.6048 38.3499L17.0511 40.1797H15.9199C15.1184 40.1766 14.3263 40.3529 13.6017 40.6955C12.8771 41.0381 12.2383 41.5384 11.7321 42.1598C10.9721 41.3061 10.5729 40.191 10.6183 39.049H10.618ZM19.2279 35.5836C19.4462 35.7616 19.6811 35.9182 19.9295 36.0512V38.9395C19.9282 39.2331 19.8202 39.5163 19.6257 39.7363C19.4312 39.9563 19.1633 40.0981 18.8721 40.1353L19.2864 38.7754C19.299 38.7333 19.3083 38.6903 19.3143 38.6468C19.4634 37.6284 19.4342 36.5919 19.2279 35.5836ZM33.0818 48.0577V50.6367C33.0818 50.4796 32.9634 50.3235 32.8971 50.1701C32.8052 49.9588 32.6332 49.7926 32.4189 49.7079C32.2045 49.6232 31.9654 49.627 31.7539 49.7185C31.6498 49.7611 31.5554 49.8241 31.4761 49.9038C31.3968 49.9835 31.3342 50.0782 31.292 50.1824C31.2497 50.2866 31.2288 50.3982 31.2303 50.5106C31.2318 50.623 31.2558 50.734 31.3007 50.837C31.8017 51.9958 31.8394 53.3025 31.4061 54.4883H17.2922C16.8595 53.3023 16.8978 51.9956 17.3991 50.837C17.4869 50.6266 17.4884 50.3902 17.4034 50.1787C17.3184 49.9673 17.1536 49.7977 16.9447 49.7067C16.7357 49.6156 16.4993 49.6103 16.2866 49.692C16.0738 49.7737 15.9016 49.9358 15.8073 50.1432C15.2148 51.514 15.0988 53.0438 15.4779 54.4883H12.2693V45.5447C12.2689 45.0661 12.3632 44.5922 12.5468 44.1502C12.7303 43.7083 12.9995 43.307 13.3389 42.9695C13.6782 42.632 14.0809 42.365 14.5239 42.1839C14.9669 42.0028 15.4413 41.9111 15.9199 41.9141H18.2954C19.4236 43.2148 23.8318 47.7458 33.0818 48.0577ZM62.7107 70.8203H13.7146V60.8477H62.7107V70.8203ZM34.8162 38.6043C34.8161 38.5044 34.8362 38.4056 34.8755 38.3138C34.9147 38.222 34.9722 38.1391 35.0444 38.0702C35.1167 38.0012 35.2022 37.9477 35.2957 37.9128C35.3893 37.8779 35.489 37.8624 35.5887 37.8672H56.5924C56.6921 37.8623 56.7917 37.8778 56.8852 37.9127C56.9786 37.9476 57.064 38.0012 57.1361 38.0702C57.2082 38.1391 57.2655 38.222 57.3045 38.3139C57.3436 38.4057 57.3635 38.5045 57.3631 38.6043V51.4531H34.8162V38.6043ZM34.2381 53.1875H57.9412V53.3504C57.9412 53.9599 57.5472 54.4883 56.9556 54.4883H35.2253C34.6339 54.4883 34.2381 53.9599 34.2381 53.3504V53.1875ZM66.1795 56.2227V59.1133H10.2459V56.2227H66.1795ZM29.9832 41.9141H32.7783C32.879 41.9016 32.9803 41.8947 33.0818 41.8933V46.3223C28.1677 46.141 24.8071 44.6593 22.7977 43.4087C21.8846 42.8457 21.0355 42.1852 20.2652 41.4387C20.6921 41.1759 21.0446 40.8083 21.2894 40.3709C21.5342 39.9335 21.6631 39.4407 21.6638 38.9395V36.8459C23.3996 37.4236 25.2757 37.4236 27.0115 36.8459L27.0355 38.94C27.0457 40.5534 28.3679 41.9141 29.9832 41.9141ZM33.9356 31.5367C33.836 32.9894 33.2809 34.3737 32.3492 35.4927C31.4174 36.6117 30.1565 37.4083 28.7459 37.7692V36.0525C29.9917 35.311 31.0302 34.267 31.765 33.0173C32.4999 31.7676 32.9073 30.3525 32.9496 28.9034C33.2343 28.8948 33.5153 28.8369 33.7802 28.7321C33.9151 28.6782 34.0447 28.6119 34.1674 28.5342L33.9356 31.5367ZM32.9373 27.1662V25.9172C32.9904 25.9049 33.0454 25.9037 33.099 25.9136C33.1526 25.9236 33.2036 25.9445 33.2487 25.975C33.3485 26.0407 33.4282 26.1326 33.479 26.2407C33.5298 26.3488 33.5497 26.4689 33.5366 26.5876C33.5234 26.7063 33.4778 26.8191 33.4046 26.9135C33.3314 27.0078 33.2335 27.0802 33.1218 27.1224C33.0665 27.1562 33.0019 27.1715 32.9373 27.1662ZM33.0818 19.1089V22.1123C33.0883 22.5281 33.1965 22.9359 33.397 23.3002C33.5976 23.6645 33.8843 23.9742 34.2321 24.202C34.2958 24.2441 34.3489 24.3004 34.3871 24.3664C34.4254 24.4324 34.4478 24.5064 34.4527 24.5826L34.447 24.7004C34.3842 24.6464 34.3186 24.5956 34.2506 24.5482C34.0628 24.4187 33.8551 24.3207 33.6356 24.2581C33.375 23.8889 33.1368 23.5043 32.9222 23.1065C32.8926 23.0208 32.8495 22.9404 32.7948 22.8682C31.8975 21.1011 31.4275 19.1481 31.4226 17.1663C31.4226 17.1325 31.4207 17.0987 31.4168 17.0651L31.3456 16.554C31.8586 16.7554 32.2989 17.1071 32.6087 17.563C32.9185 18.0189 33.0834 18.5577 33.0818 19.1089ZM29.8125 19.1252C30.018 20.6932 30.4881 22.2148 31.2029 23.6254V28.6574C31.2065 30.4343 30.5218 32.1436 29.2925 33.4267C28.0631 34.7098 26.3847 35.467 24.6092 35.5393C22.8337 35.6117 21.0992 34.9936 19.7695 33.8148C18.4398 32.636 17.6183 30.9881 17.4773 29.2167C17.5237 29.0882 17.5761 28.9602 17.6282 28.8331L17.7321 28.5845C18.0838 27.7292 18.5424 26.9218 19.0971 26.1818C19.2291 26.2394 19.3733 26.2633 19.5168 26.2512C19.6603 26.2391 19.7985 26.1914 19.919 26.1126C20.0395 26.0337 20.1384 25.926 20.2069 25.7993C20.2753 25.6727 20.3112 25.5309 20.3112 25.3869C20.3112 25.2621 20.3607 25.1424 20.449 25.0542C20.5373 24.9659 20.657 24.9163 20.7818 24.9163C20.9066 24.9163 21.0263 24.9659 21.1145 25.0542C21.2028 25.1424 21.2524 25.2621 21.2524 25.3869C21.2524 25.6169 21.3437 25.8375 21.5063 26.0001C21.669 26.1627 21.8895 26.2541 22.1195 26.2541C22.3495 26.2541 22.5701 26.1627 22.7327 26.0001C22.8954 25.8375 22.9867 25.6169 22.9867 25.3869C22.9864 25.0142 22.8915 24.6476 22.7109 24.3215C22.5302 23.9954 22.2699 23.7205 21.9541 23.5225C23.0362 22.8276 24.2325 22.329 25.4878 22.0498C27.2476 21.6574 28.793 20.6123 29.8125 19.1252ZM13.0787 23.9488C14.0229 22.1042 15.4993 20.3412 15.514 20.3236C15.651 20.1694 15.7301 19.9725 15.7381 19.7665V19.0105C15.7342 18.1306 15.9038 17.2586 16.2371 16.4442C16.5705 15.6299 17.061 14.8893 17.6808 14.2647C18.3006 13.6401 19.0374 13.1438 19.8491 12.8041C20.6608 12.4645 21.5315 12.2881 22.4113 12.2852H26.2914C27.1045 12.2926 27.8849 12.6063 28.477 13.1636C29.069 13.721 29.4292 14.4811 29.4856 15.2923C28.3754 17.1303 26.5571 18.2109 24.4583 18.2109H22.7962C21.3517 18.2025 19.92 18.481 18.5839 19.0303C17.2479 19.5795 16.0342 20.3885 15.0132 21.4104C13.7642 22.6495 12.9054 24.2272 12.5428 25.9487C12.5763 25.2514 12.759 24.5694 13.0787 23.9488ZM9.66282 34.2708L10.0807 33.3212C10.4547 33.6075 10.903 33.7807 11.3723 33.8203C11.3894 33.8223 11.4063 33.8242 11.4232 33.8252C11.9885 33.8604 12.5485 33.6981 13.0074 33.3661L13.0941 33.3279C13.4138 33.1022 13.6759 32.8044 13.859 32.4585C14.0421 32.1127 14.1412 31.7285 14.1482 31.3373V27.826C14.1395 26.8632 14.323 25.9084 14.6879 25.0174C15.0529 24.1265 15.592 23.3173 16.2737 22.6374C17.1272 21.7774 18.1437 21.0964 19.2637 20.6342C20.3836 20.1719 21.5845 19.9377 22.7961 19.9453H24.4582C25.3932 19.9413 26.3194 19.7655 27.1909 19.4267C26.5727 19.8854 25.8638 20.2068 25.1115 20.3695C23.1153 20.8124 21.256 21.7315 19.6919 23.0485C18.1279 24.3655 16.9056 26.0412 16.1293 27.9328L16.0281 28.1785C15.648 29.1063 15.3936 30.0808 15.2715 31.076C15.2658 31.1076 15.2619 31.1395 15.2598 31.1716C15.2095 31.6017 15.1838 32.0342 15.1829 32.4672C15.1851 33.275 15.0271 34.0752 14.7179 34.8215C14.4088 35.5678 13.9547 36.2454 13.3819 36.815C13.0039 37.193 12.5057 37.4269 11.9735 37.4764C11.4412 37.5259 10.9084 37.3878 10.4672 37.0859C10.0261 36.7841 9.70424 36.3376 9.55745 35.8236C9.41066 35.3097 9.44814 34.7605 9.6634 34.2713L9.66282 34.2708Z" fill="#E1651F"/>
<path d="M25.7116 25.3871C25.7116 25.6171 25.803 25.8377 25.9656 26.0003C26.1282 26.1629 26.3488 26.2543 26.5788 26.2543C26.8088 26.2543 27.0294 26.1629 27.192 26.0003C27.3546 25.8377 27.446 25.6171 27.446 25.3871C27.446 25.2623 27.4956 25.1426 27.5838 25.0543C27.6721 24.9661 27.7918 24.9165 27.9166 24.9165C28.0414 24.9165 28.1611 24.9661 28.2493 25.0543C28.3376 25.1426 28.3872 25.2623 28.3872 25.3871C28.3872 25.6171 28.4785 25.8377 28.6412 26.0003C28.8038 26.1629 29.0244 26.2543 29.2544 26.2543C29.4844 26.2543 29.7049 26.1629 29.8676 26.0003C30.0302 25.8377 30.1215 25.6171 30.1215 25.3871C30.1215 24.8023 29.8892 24.2415 29.4757 23.828C29.0622 23.4144 28.5014 23.1821 27.9166 23.1821C27.3318 23.1821 26.7709 23.4144 26.3574 23.828C25.9439 24.2415 25.7116 24.8023 25.7116 25.3871Z" fill="#E1651F"/>
<path d="M25.966 29.7855C25.7537 29.9979 25.5016 30.1664 25.2242 30.2813C24.9467 30.3963 24.6493 30.4555 24.349 30.4555C24.0487 30.4555 23.7513 30.3963 23.4739 30.2813C23.1964 30.1664 22.9443 29.9979 22.732 29.7855C22.5694 29.6229 22.3488 29.5315 22.1188 29.5315C21.8888 29.5315 21.6682 29.6228 21.5056 29.7855C21.3429 29.9481 21.2516 30.1687 21.2516 30.3987C21.2515 30.6287 21.3429 30.8492 21.5055 31.0119C21.8789 31.3853 22.3222 31.6816 22.8101 31.8837C23.298 32.0858 23.8209 32.1898 24.349 32.1898C24.877 32.1898 25.4 32.0858 25.8878 31.8837C26.3757 31.6816 26.819 31.3853 27.1924 31.0119C27.3528 30.8488 27.4423 30.6289 27.4414 30.4002C27.4405 30.1714 27.3492 29.9523 27.1874 29.7905C27.0257 29.6287 26.8065 29.5374 26.5778 29.5365C26.349 29.5356 26.1291 29.6251 25.966 29.7855Z" fill="#E1651F"/>
</svg>
