<svg width="74" height="74" viewBox="0 0 74 74" fill="none" xmlns="http://www.w3.org/2000/svg">
<path d="M39.4748 22.4037C39.7048 22.4037 39.9253 22.3123 40.088 22.1497C40.2506 21.9871 40.342 21.7665 40.342 21.5365C40.342 21.31 40.4319 21.0929 40.5921 20.9327C40.7522 20.7726 40.9694 20.6826 41.1959 20.6826C41.4223 20.6826 41.6395 20.7726 41.7997 20.9327C41.9598 21.0929 42.0497 21.31 42.0497 21.5365C42.0497 21.7665 42.1411 21.9871 42.3037 22.1497C42.4664 22.3123 42.6869 22.4037 42.9169 22.4037C43.1469 22.4037 43.3675 22.3123 43.5301 22.1497C43.6928 21.9871 43.7841 21.7665 43.7841 21.5365C43.7841 20.8501 43.5114 20.1917 43.026 19.7063C42.5406 19.2209 41.8823 18.9482 41.1959 18.9482C40.5094 18.9482 39.8511 19.2209 39.3657 19.7063C38.8803 20.1917 38.6076 20.8501 38.6076 21.5365C38.6076 21.6504 38.63 21.7632 38.6736 21.8684C38.7172 21.9736 38.7811 22.0692 38.8616 22.1497C38.9421 22.2302 39.0377 22.2941 39.1429 22.3377C39.2481 22.3813 39.3609 22.4037 39.4748 22.4037Z" fill="#E1651F"/>
<path d="M31.1628 21.5365C31.1628 21.31 31.2528 21.0929 31.4129 20.9327C31.573 20.7726 31.7902 20.6826 32.0167 20.6826C32.2432 20.6826 32.4604 20.7726 32.6205 20.9327C32.7806 21.0929 32.8706 21.31 32.8706 21.5365C32.8706 21.7665 32.962 21.9871 33.1246 22.1497C33.2872 22.3123 33.5078 22.4037 33.7378 22.4037C33.9678 22.4037 34.1883 22.3123 34.351 22.1497C34.5136 21.9871 34.605 21.7665 34.605 21.5365C34.605 20.8501 34.3323 20.1917 33.8469 19.7063C33.3615 19.2209 32.7032 18.9482 32.0167 18.9482C31.3303 18.9482 30.6719 19.2209 30.1865 19.7063C29.7011 20.1917 29.4284 20.8501 29.4284 21.5365C29.4284 21.7665 29.5198 21.9871 29.6824 22.1497C29.8451 22.3123 30.0656 22.4037 30.2956 22.4037C30.5256 22.4037 30.7462 22.3123 30.9088 22.1497C31.0714 21.9871 31.1628 21.7665 31.1628 21.5365Z" fill="#E1651F"/>
<path d="M33.1238 27.371C32.9612 27.5336 32.8698 27.7542 32.8698 27.9842C32.8698 28.2141 32.9612 28.4347 33.1238 28.5973C34.0481 29.5196 35.3005 30.0376 36.6063 30.0376C37.912 30.0376 39.1645 29.5196 40.0888 28.5973C40.2514 28.4347 40.3427 28.2141 40.3427 27.9841C40.3427 27.7541 40.2513 27.5335 40.0887 27.3709C39.9261 27.2083 39.7055 27.1169 39.4755 27.1169C39.2455 27.117 39.0249 27.2083 38.8623 27.371C38.2635 27.9684 37.4521 28.304 36.6062 28.304C35.7603 28.304 34.949 27.9684 34.3501 27.371C34.1875 27.2084 33.967 27.117 33.737 27.117C33.507 27.117 33.2864 27.2084 33.1238 27.371V27.371Z" fill="#E1651F"/>
<path d="M11.8371 71.1094H62.1628C62.276 71.1091 62.3879 71.0864 62.4921 71.0425C62.5964 70.9986 62.6909 70.9345 62.7702 70.8538C62.8495 70.7732 62.9121 70.6776 62.9542 70.5726C62.9963 70.4676 63.0172 70.3553 63.0156 70.2422V51.7896C63.0255 48.9562 62.077 46.2026 60.3243 43.9763C58.5716 41.75 56.1175 40.1818 53.3609 39.5265C50.7316 38.8721 48.2013 37.8702 45.8369 36.5471L43.9375 35.5068V33.7245C45.036 32.7184 45.9149 31.4963 46.5191 30.1347C47.1233 28.7731 47.4398 27.3014 47.4487 25.8117C47.4967 25.8142 47.5447 25.8165 47.5932 25.8165C48.1981 25.8197 48.7879 25.6282 49.2755 25.2703C49.7631 24.9124 50.1226 24.4072 50.301 23.8292C50.4793 23.2513 50.467 22.6313 50.2659 22.0609C50.0647 21.4905 49.6854 20.9999 49.1839 20.6617C48.6621 20.3106 48.0294 20.1637 47.4062 20.2489V20.1188C47.5019 20.0973 47.5881 20.0454 47.6519 19.9708C48.924 18.7958 49.9075 17.3427 50.5256 15.7251L51.2104 13.9301C51.3661 13.5211 51.4245 13.0814 51.381 12.646C51.3375 12.2105 51.1933 11.7911 50.9597 11.4209C50.7262 11.0508 50.4097 10.7401 50.0353 10.5133C49.661 10.2866 49.239 10.15 48.8028 10.1145C48.8821 9.12719 48.5872 8.14618 47.9768 7.36617C47.3663 6.58617 46.4849 6.0642 45.5075 5.90387L45.4813 5.89953L44.2673 4.58863C43.5367 3.80297 42.5739 3.27173 41.5197 3.07265C40.4655 2.87357 39.3753 3.0171 38.4086 3.48225L38.3817 3.46779C37.6357 3.07235 36.8012 2.87379 35.9571 2.89091C35.113 2.90804 34.2872 3.14027 33.5579 3.56564L33.5091 3.55928C31.8917 3.34508 30.2466 3.59219 28.7635 4.27215C27.2804 4.9521 26.0196 6.03723 25.1263 7.40251C24.6641 7.55427 24.2392 7.80192 23.8794 8.12928C23.5195 8.45663 23.2329 8.85628 23.0382 9.30209C22.2709 11.0093 22.5214 13.6885 23.7829 17.2658C24.1836 18.4022 24.6211 19.443 24.9875 20.2576C24.628 20.3167 24.2862 20.4549 23.9866 20.6622C23.6652 20.883 23.3932 21.1684 23.1881 21.5001C22.9831 21.8319 22.8494 22.2027 22.7956 22.589C22.7386 22.9904 22.7685 23.3994 22.8833 23.7882C22.9981 24.1771 23.1951 24.5367 23.4609 24.8428C23.7268 25.1489 24.0554 25.3943 24.4243 25.5624C24.7933 25.7305 25.194 25.8174 25.5995 25.8171C25.6544 25.8171 25.7093 25.8148 25.7642 25.8116C25.7748 27.4744 26.168 29.1124 26.9134 30.5987C27.6588 32.0851 28.7363 33.38 30.0625 34.383V35.8208L27.6668 37.0242C25.4288 38.128 23.07 38.9678 20.6379 39.5265C17.8814 40.182 15.4277 41.7504 13.6752 43.9766C11.9226 46.2029 10.9743 48.9564 10.9843 51.7896V70.2422C10.9827 70.3553 11.0036 70.4676 11.0457 70.5726C11.0878 70.6776 11.1504 70.7732 11.2297 70.8538C11.309 70.9345 11.4035 70.9986 11.5078 71.0425C11.612 71.0864 11.7239 71.1091 11.8371 71.1094ZM45.0937 69.3751H30.496V62.8885C35.121 64.9066 40.3242 64.9157 45.0937 62.9133V69.3751ZM61.2812 69.3751H53.8419L53.3733 63.1602H61.2812V69.3751ZM51.8867 40.9429C52.3203 41.0403 52.592 41.1308 52.9363 41.2131C55.3156 41.7776 57.4345 43.1294 58.9493 45.0492C60.464 46.969 61.2858 49.3442 61.2812 51.7896V61.4258H53.243L52.4178 50.7198C52.3997 50.526 52.3435 50.3377 52.2523 50.1658C52.1611 49.9938 52.0369 49.8416 51.8867 49.7178V40.9429ZM48.1289 39.5903C48.8515 39.8865 49.5742 40.154 50.1523 40.3947V49.4297H48.1289V39.5903ZM48.1969 22.0876C48.3624 22.1976 48.4945 22.351 48.5785 22.531C48.6626 22.7111 48.6955 22.9108 48.6735 23.1083C48.6515 23.3058 48.5756 23.4934 48.454 23.6506C48.3325 23.8078 48.17 23.9284 47.9843 23.9993C47.8023 24.0777 47.6017 24.1021 47.4062 24.0696V22.0388C47.5313 21.9789 47.6696 21.952 47.808 21.9606C47.9464 21.9693 48.0803 22.0132 48.1969 22.0882V22.0876ZM25.7265 24.0668C25.5355 24.0943 25.3407 24.071 25.1615 23.9993C24.9381 23.9067 24.752 23.7421 24.6326 23.5318C24.5132 23.3214 24.4674 23.0772 24.5025 22.8379C24.5205 22.6885 24.5698 22.5446 24.6469 22.4155C24.7241 22.2863 24.8275 22.1748 24.9505 22.0882C25.064 22.0115 25.1964 21.9674 25.3332 21.9606C25.4699 21.9539 25.606 21.9847 25.7265 22.0497V24.0668ZM25.7265 17.6178C25.6007 17.3143 25.4917 17.0041 25.4002 16.6885C25.0003 15.5809 24.6944 14.4415 24.4859 13.2825C24.5267 13.3286 24.573 13.3697 24.6236 13.4049C24.9712 13.6255 25.3409 13.8093 25.7265 13.9534V17.6178ZM25.5733 11.9396C25.3792 11.8173 25.1446 11.7769 24.9207 11.8272C24.6969 11.8775 24.5021 12.0144 24.3791 12.208C24.3727 12.218 24.3676 12.2284 24.3617 12.2385C24.2916 11.3099 24.3762 10.5559 24.6197 10.0127C24.7315 9.74978 24.9062 9.51827 25.1283 9.33855C25.3505 9.15882 25.6134 9.03638 25.8939 8.98195C26.0051 8.95459 26.1097 8.90549 26.2018 8.83747C26.2939 8.76945 26.3717 8.68386 26.4305 8.58565C27.1251 7.42587 28.1438 6.49467 29.3611 5.90681C30.5784 5.31895 31.9411 5.10013 33.2813 5.27733L33.6396 5.32459C33.8503 5.35253 34.064 5.30201 34.2398 5.18266C34.726 4.85231 35.2931 4.6608 35.8801 4.62877C36.467 4.59673 37.0516 4.72537 37.5709 5.00084L38.0094 5.23209C38.1429 5.30259 38.2925 5.33701 38.4434 5.33194C38.5943 5.32687 38.7413 5.28249 38.8698 5.20318C39.5164 4.80597 40.2807 4.64495 41.0326 4.7475C41.7846 4.85005 42.4778 5.20983 42.9945 5.7657L44.4109 7.29513C44.5421 7.4367 44.7167 7.53048 44.9071 7.56164L45.2272 7.61411C45.5527 7.66723 45.8621 7.79249 46.1328 7.98069C46.4036 8.16889 46.6288 8.41527 46.792 8.70178C46.9551 8.9883 47.0522 9.30769 47.0759 9.63655C47.0997 9.96542 47.0496 10.2954 46.9292 10.6024C46.8793 10.7299 46.8602 10.8674 46.8736 11.0037C46.887 11.14 46.9325 11.2711 47.0063 11.3865C47.0802 11.5018 47.1803 11.598 47.2984 11.6672C47.4166 11.7364 47.5495 11.7766 47.6862 11.7846L48.6373 11.8401C48.8082 11.85 48.9744 11.9001 49.1224 11.9861C49.2704 12.0722 49.3961 12.1919 49.4893 12.3356C49.5824 12.4792 49.6405 12.6428 49.6587 12.8131C49.677 12.9833 49.6549 13.1554 49.5943 13.3156L48.915 15.1107C48.5845 15.9814 48.1272 16.7985 47.5581 17.5357C47.344 16.141 47.243 14.7313 47.256 13.3203C47.256 12.0952 46.4821 10.4047 45.0029 9.54447C44.0421 8.98571 42.4405 8.57929 40.2669 9.81604L40.2343 9.8344C37.9411 11.1394 35.5698 12.4889 31.0398 9.73149C30.9425 9.67228 30.8345 9.63281 30.722 9.61534C30.6094 9.59787 30.4946 9.60273 30.3839 9.62965C30.2732 9.65658 30.169 9.70503 30.077 9.77225C29.9851 9.83947 29.9073 9.92414 29.8481 10.0214C29.7889 10.1187 29.7494 10.2267 29.732 10.3392C29.7145 10.4518 29.7194 10.5666 29.7463 10.6773C29.7732 10.788 29.8217 10.8922 29.8889 10.9842C29.9561 11.0761 30.0408 11.1539 30.138 11.2131C30.3548 11.3447 30.5663 11.4656 30.7759 11.5812C30.3687 11.9718 29.8804 12.2679 29.3459 12.4484C28.8113 12.6288 28.2435 12.6893 27.6829 12.6254C26.9402 12.5434 26.2223 12.31 25.5733 11.9396V11.9396ZM27.4609 25.7438V14.3579C27.75 14.3764 27.8695 14.3868 28.0698 14.3868C29.4939 14.3868 31.071 13.8795 32.4231 12.3669C36.4765 13.9599 39.097 12.4738 41.0873 11.3407L41.1221 11.3222C42.2918 10.6574 43.3045 10.5625 44.1295 11.0427C45.0782 11.5944 45.5208 12.6926 45.5208 13.2845C45.5101 14.5448 45.5847 15.8045 45.7441 17.0547H45.6718V25.7438C45.6718 28.1587 44.7125 30.4747 43.0049 32.1824C41.2973 33.89 38.9813 34.8493 36.5664 34.8493C34.1514 34.8493 31.8354 33.89 30.1278 32.1824C28.4202 30.4747 27.4609 28.1587 27.4609 25.7438V25.7438ZM42.2031 35.0288V41.9663C41.5401 42.6846 40.7355 43.2579 39.84 43.65C38.9445 44.0421 37.9775 44.2446 37 44.2446C36.0224 44.2446 35.0554 44.0421 34.1599 43.65C33.2644 43.2579 32.4598 42.6846 31.7968 41.9663V35.4591C33.4274 36.2688 35.2361 36.654 37.0551 36.5788C38.8742 36.5035 40.6449 35.9704 42.2031 35.0288V35.0288ZM27.6054 38.9801C27.8945 38.8488 28.1691 38.7135 28.4457 38.5743L30.0625 37.7616V42.2952C30.0628 42.5007 30.1359 42.6994 30.269 42.856C31.0976 43.8348 32.1294 44.6212 33.2928 45.1606C34.4562 45.7001 35.7232 45.9795 37.0056 45.9795C38.288 45.9795 39.5549 45.7001 40.7183 45.1606C41.8817 44.6212 42.9136 43.8348 43.7422 42.856C43.872 42.6983 43.9412 42.4995 43.9375 42.2952V37.4857L45.0052 38.067C45.4646 38.3195 45.9609 38.5584 46.3945 38.7873V49.4297H27.6054V38.9801ZM23.8476 40.4441C24.5703 40.2188 25.1484 39.9783 25.871 39.7184V49.4297H23.8476V40.4441ZM50.7295 51.1641L52.1026 69.3751H46.8281V61.5415C46.8236 61.391 46.7812 61.244 46.7047 61.1144C46.6282 60.9847 46.5202 60.8764 46.3906 60.7997C46.261 60.723 46.1142 60.6803 45.9637 60.6756C45.8132 60.6709 45.664 60.7044 45.5299 60.7728C43.1302 62.0262 40.4622 62.6784 37.7549 62.6734C35.0476 62.6684 32.382 62.0063 29.987 60.7439C29.859 60.6743 29.7147 60.6399 29.569 60.6442C29.4233 60.6485 29.2814 60.6914 29.1577 60.7685C29.0326 60.847 28.9303 60.9568 28.8608 61.087C28.7914 61.2173 28.7572 61.3634 28.7617 61.511V69.3751H21.8972L23.2702 51.1641H50.7295ZM12.7187 51.7896C12.7141 49.3442 13.5359 46.969 15.0506 45.0492C16.5654 43.1294 18.6843 41.7776 21.0636 41.2131C21.4144 41.1292 21.6796 41.0417 22.1132 40.9513V49.7178C21.963 49.8415 21.8388 49.9938 21.7476 50.1657C21.6565 50.3376 21.6002 50.5259 21.5821 50.7197L20.757 61.4258H12.7187V51.7896ZM12.7187 63.1602H20.6266L20.158 69.3751H12.7187V63.1602Z" fill="#E1651F"/>
<path d="M25.4375 55.5246C25.6675 55.5246 25.8881 55.4332 26.0507 55.2706C26.2133 55.108 26.3047 54.8874 26.3047 54.6574V54.0632C26.3047 53.8332 26.2133 53.6127 26.0507 53.45C25.8881 53.2874 25.6675 53.196 25.4375 53.196C25.2075 53.196 24.9869 53.2874 24.8243 53.45C24.6617 53.6127 24.5703 53.8332 24.5703 54.0632V54.6574C24.5703 54.8874 24.6617 55.108 24.8243 55.2706C24.9869 55.4332 25.2075 55.5246 25.4375 55.5246Z" fill="#E1651F"/>
<path d="M25.4375 66.459C25.6675 66.459 25.8881 66.3676 26.0507 66.205C26.2133 66.0424 26.3047 65.8218 26.3047 65.5918V57.498C26.3047 57.2681 26.2133 57.0475 26.0507 56.8849C25.8881 56.7222 25.6675 56.6309 25.4375 56.6309C25.2075 56.6309 24.9869 56.7222 24.8243 56.8849C24.6617 57.0475 24.5703 57.2681 24.5703 57.498V65.5918C24.5703 65.8218 24.6617 66.0424 24.8243 66.205C24.9869 66.3676 25.2075 66.459 25.4375 66.459V66.459Z" fill="#E1651F"/>
</svg>
