<svg width="75" height="74" viewBox="0 0 75 74" fill="none" xmlns="http://www.w3.org/2000/svg">
<path d="M67.6992 39.6016H65.9118L61.1681 29.7512C60.7306 28.8505 60.0491 28.0907 59.2012 27.5581C58.3533 27.0254 57.3729 26.7414 56.3716 26.7383H47.5552V17.8406C47.5552 15.8322 45.8549 14.1641 43.8466 14.1641H5.23643C4.26725 14.1729 3.3408 14.5642 2.65869 15.2528C1.97657 15.9413 1.59401 16.8714 1.59424 17.8406V53.1207C1.59424 53.5997 1.98259 54.0545 2.46143 54.0545H5.60426C5.79936 55.6402 6.56762 57.0997 7.76427 58.1581C8.96093 59.2166 10.5034 59.8008 12.1009 59.8008C13.6985 59.8008 15.2409 59.2166 16.4376 58.1581C17.6343 57.0997 18.4025 55.6402 18.5976 54.0545H53.8247C54.0198 55.6402 54.788 57.0997 55.9847 58.1581C57.1813 59.2166 58.7238 59.8008 60.3213 59.8008C61.9189 59.8008 63.4613 59.2166 64.658 58.1581C65.8547 57.0997 66.6229 55.6402 66.818 54.0545H71.8364C72.3153 54.0545 72.7036 53.5997 72.7036 53.1207V44.5519C72.7018 43.8978 72.5707 43.2504 72.3179 42.6471C72.0651 42.0438 71.6956 41.4964 71.2305 41.0364C70.7655 40.5763 70.2141 40.2128 69.6081 39.9665C69.002 39.7203 68.3533 39.5963 67.6992 39.6016V39.6016ZM12.1017 58.0673C11.1498 58.0673 10.2192 57.785 9.42776 57.2562C8.63629 56.7273 8.01941 55.9757 7.65513 55.0962C7.29085 54.2168 7.19554 53.2491 7.38125 52.3155C7.56695 51.3819 8.02534 50.5243 8.69843 49.8512C9.37153 49.1781 10.2291 48.7197 11.1627 48.534C12.0963 48.3483 13.064 48.4436 13.9435 48.8079C14.8229 49.1722 15.5746 49.789 16.1034 50.5805C16.6323 51.372 16.9146 52.3025 16.9146 53.2544C16.9131 54.5304 16.4055 55.7537 15.5032 56.656C14.601 57.5583 13.3777 58.0658 12.1017 58.0673V58.0673ZM45.8208 52.3203H18.5807C18.3553 50.7626 17.5762 49.3381 16.3862 48.308C15.1962 47.2778 13.6749 46.7107 12.1009 46.7107C10.527 46.7107 9.00566 47.2778 7.81565 48.308C6.62565 49.3381 5.84659 50.7626 5.62117 52.3203H3.32861V41.3359H45.8208V52.3203ZM45.8208 27.6055V39.6016H3.32861V17.8406C3.32786 17.3312 3.52754 16.842 3.88451 16.4786C4.24148 16.1152 4.72709 15.9068 5.23643 15.8984H43.8466C44.3629 15.9042 44.8569 16.1097 45.225 16.4718C45.5931 16.8339 45.8066 17.3245 45.8208 17.8406V27.6055ZM51.1685 28.4727H56.3716C57.0464 28.4742 57.7073 28.6651 58.279 29.0237C58.8507 29.3823 59.3103 29.8941 59.6055 30.501L62.2495 35.9883H51.1685V28.4727ZM47.5552 28.4727H49.4341V36.8068C49.4423 37.0464 49.5409 37.274 49.7101 37.4439C49.8793 37.6138 50.1065 37.7134 50.3461 37.7227H63.0848L63.9869 39.6016H47.5552V28.4727ZM60.3215 58.0673C59.3696 58.0673 58.4391 57.785 57.6476 57.2562C56.8561 56.7273 56.2392 55.9757 55.8749 55.0962C55.5107 54.2168 55.4154 53.2491 55.6011 52.3155C55.7868 51.3819 56.2452 50.5243 56.9182 49.8512C57.5913 49.1781 58.4489 48.7197 59.3825 48.534C60.3161 48.3483 61.2838 48.4436 62.1633 48.8079C63.0427 49.1722 63.7944 49.789 64.3232 50.5805C64.8521 51.372 65.1344 52.3025 65.1344 53.2544C65.1329 54.5304 64.6253 55.7537 63.7231 56.656C62.8208 57.5583 61.5975 58.0658 60.3215 58.0673V58.0673ZM70.9692 52.3203H66.8012C66.5758 50.7626 65.7968 49.3381 64.6068 48.308C63.4168 47.2778 61.8955 46.7107 60.3215 46.7107C58.7475 46.7107 57.2262 47.2778 56.0362 48.308C54.8462 49.3381 54.0671 50.7626 53.8417 52.3203H47.5552V41.3359H67.6992C68.1791 41.3304 68.6543 41.4312 69.0906 41.6311C69.527 41.831 69.9136 42.1251 70.2227 42.4922H67.6074C67.4965 42.4909 67.3864 42.5122 67.2838 42.5547C67.1813 42.5972 67.0885 42.6601 67.0109 42.7395C66.9334 42.8189 66.8727 42.9132 66.8327 43.0167C66.7926 43.1203 66.774 43.2308 66.7778 43.3417V46.8683C66.7744 46.9781 66.7936 47.0873 66.8341 47.1894C66.8746 47.2914 66.9356 47.3841 67.0134 47.4616C67.0912 47.5391 67.184 47.5999 67.2862 47.6401C67.3884 47.6803 67.4977 47.6991 67.6074 47.6953H70.9692V52.3203ZM70.9692 45.9609H68.5122V44.2266H70.9512C70.963 44.3711 70.9692 44.4361 70.9692 44.5519V45.9609Z" fill="#E1651F"/>
<path d="M34.0718 32.5835C33.6955 30.5138 32.6735 28.6165 31.1523 27.1636C29.631 25.7106 27.6888 24.7767 25.604 24.4958C26.1209 24.1969 26.5248 23.7357 26.7529 23.1839C26.9811 22.6321 27.0209 22.0204 26.8661 21.4437C26.7113 20.867 26.3706 20.3574 25.8968 19.994C25.423 19.6306 24.8426 19.4336 24.2454 19.4336C23.6483 19.4336 23.0678 19.6306 22.594 19.994C22.1202 20.3574 21.7795 20.867 21.6247 21.4437C21.47 22.0204 21.5097 22.6321 21.7379 23.1839C21.9661 23.7357 22.3699 24.1969 22.8868 24.4958C20.8021 24.7767 18.8598 25.7106 17.3385 27.1635C15.8173 28.6165 14.7952 30.5138 14.4189 32.5835C13.956 32.651 13.5357 32.8908 13.242 33.2548C12.9482 33.6189 12.8027 34.0804 12.8345 34.5471C12.8664 35.0137 13.0732 35.4512 13.4136 35.772C13.7541 36.0928 14.2031 36.2733 14.6708 36.2773H33.8195C34.2873 36.2734 34.7363 36.093 35.0768 35.7722C35.4174 35.4515 35.6243 35.014 35.6561 34.5473C35.688 34.0806 35.5426 33.619 35.2488 33.2549C34.9551 32.8908 34.5347 32.651 34.0718 32.5835V32.5835ZM24.2451 21.1718C24.4388 21.1717 24.6282 21.2291 24.7892 21.3367C24.9503 21.4443 25.0758 21.5972 25.1499 21.7762C25.2241 21.9551 25.2435 22.152 25.2057 22.342C25.1679 22.5319 25.0746 22.7064 24.9377 22.8434C24.8007 22.9803 24.6262 23.0736 24.4363 23.1114C24.2463 23.1491 24.0494 23.1297 23.8705 23.0556C23.6916 22.9815 23.5386 22.8559 23.4311 22.6949C23.3235 22.5338 23.2661 22.3445 23.2661 22.1508C23.2664 21.8912 23.3696 21.6424 23.5532 21.4589C23.7367 21.2753 23.9856 21.1721 24.2451 21.1718V21.1718ZM24.2451 26.0935C28.1563 26.0935 31.462 28.9062 32.2986 32.5195H16.1919C17.0283 28.9062 20.334 26.0935 24.2451 26.0935V26.0935ZM33.8195 34.5429H14.6708C14.6116 34.5429 14.5634 34.4575 14.5634 34.3984C14.5634 34.3393 14.6116 34.2539 14.6708 34.2539H33.8195C33.8787 34.2539 33.9269 34.3391 33.9269 34.3984C33.9269 34.4577 33.8787 34.5429 33.8195 34.5429Z" fill="#E1651F"/>
<path d="M5.93018 17.7012C5.8163 17.7012 5.70353 17.7236 5.59832 17.7672C5.49311 17.8108 5.39751 17.8746 5.31698 17.9552C5.23646 18.0357 5.17258 18.1313 5.129 18.2365C5.08542 18.3417 5.06299 18.4545 5.06299 18.5684V19.266C5.06299 19.496 5.15435 19.7166 5.31698 19.8792C5.47961 20.0418 5.70018 20.1332 5.93018 20.1332C6.16017 20.1332 6.38074 20.0418 6.54337 19.8792C6.706 19.7166 6.79736 19.496 6.79736 19.266V18.5688C6.79742 18.4549 6.77503 18.3421 6.73148 18.2368C6.68792 18.1315 6.62406 18.0359 6.54352 17.9553C6.46299 17.8747 6.36737 17.8108 6.26213 17.7672C6.15689 17.7236 6.04409 17.7012 5.93018 17.7012V17.7012Z" fill="#E1651F"/>
<path d="M5.93018 21.7317C5.70018 21.7317 5.47961 21.8231 5.31698 21.9857C5.15435 22.1483 5.06299 22.3689 5.06299 22.5989V32.0959C5.06299 32.3259 5.15435 32.5464 5.31698 32.7091C5.47961 32.8717 5.70018 32.9631 5.93018 32.9631C6.16017 32.9631 6.38074 32.8717 6.54337 32.7091C6.706 32.5464 6.79736 32.3259 6.79736 32.0959V22.5989C6.79736 22.3689 6.706 22.1483 6.54337 21.9857C6.38074 21.8231 6.16017 21.7317 5.93018 21.7317Z" fill="#E1651F"/>
<path d="M12.1018 49.9583C11.4501 49.9584 10.813 50.1518 10.2712 50.514C9.72942 50.8761 9.30716 51.3908 9.05786 51.993C8.80855 52.5952 8.7434 53.2577 8.87063 53.8969C8.99786 54.5361 9.31177 55.1232 9.77265 55.5839C10.2335 56.0447 10.8207 56.3585 11.4599 56.4856C12.0991 56.6127 12.7617 56.5474 13.3638 56.298C13.9659 56.0485 14.4805 55.6262 14.8425 55.0843C15.2046 54.5424 15.3978 53.9053 15.3978 53.2536C15.3967 52.3798 15.0491 51.5422 14.4312 50.9244C13.8133 50.3067 12.9756 49.9592 12.1018 49.9583V49.9583ZM12.1018 54.8158C11.7931 54.8158 11.4914 54.7243 11.2347 54.5528C10.978 54.3813 10.7779 54.1375 10.6598 53.8524C10.5416 53.5672 10.5106 53.2534 10.5708 52.9506C10.631 52.6478 10.7796 52.3697 10.9978 52.1514C11.216 51.933 11.4941 51.7843 11.7968 51.724C12.0996 51.6637 12.4134 51.6945 12.6987 51.8125C12.9839 51.9306 13.2277 52.1305 13.3993 52.3871C13.5709 52.6437 13.6626 52.9454 13.6628 53.2541C13.6623 53.6681 13.4978 54.0649 13.2051 54.3577C12.9125 54.6504 12.5157 54.8152 12.1018 54.8158V54.8158Z" fill="#E1651F"/>
<path d="M60.3214 49.9583C59.6696 49.9584 59.0326 50.1518 58.4908 50.514C57.949 50.8761 57.5267 51.3908 57.2774 51.993C57.0281 52.5952 56.9629 53.2577 57.0902 53.8969C57.2174 54.5361 57.5313 55.1232 57.9922 55.5839C58.4531 56.0447 59.0403 56.3585 59.6795 56.4856C60.3187 56.6127 60.9812 56.5474 61.5833 56.298C62.1854 56.0485 62.7 55.6262 63.0621 55.0843C63.4241 54.5424 63.6174 53.9053 63.6174 53.2536C63.6162 52.3798 63.2686 51.5422 62.6507 50.9244C62.0328 50.3067 61.1951 49.9592 60.3214 49.9583V49.9583ZM60.3214 54.8158C60.0127 54.8156 59.711 54.724 59.4544 54.5524C59.1978 54.3809 58.9979 54.1371 58.8798 53.8519C58.7618 53.5667 58.7309 53.2529 58.7912 52.9502C58.8514 52.6474 59.0001 52.3694 59.2183 52.1511C59.4366 51.9329 59.7146 51.7842 60.0174 51.724C60.3201 51.6637 60.6339 51.6946 60.9191 51.8126C61.2043 51.9307 61.4481 52.1306 61.6196 52.3872C61.7912 52.6438 61.8829 52.9455 61.883 53.2541C61.8825 53.6682 61.7178 54.0651 61.4251 54.3578C61.1323 54.6506 60.7354 54.8153 60.3214 54.8158V54.8158Z" fill="#E1651F"/>
</svg>
